<svg xmlns="http://www.w3.org/2000/svg" id="Menu" x="0" y="0" version="1.1" viewBox="0 0 29 29" xml:space="preserve"><path d="M14.5 18c-1.93 0-3.5-1.57-3.5-3.5s1.57-3.5 3.5-3.5 3.5 1.57 3.5 3.5-1.57 3.5-3.5 3.5zm0-5c-.827 0-1.5.673-1.5 1.5s.673 1.5 1.5 1.5 1.5-.673 1.5-1.5-.673-1.5-1.5-1.5zM5.5 18C3.57 18 2 16.43 2 14.5S3.57 11 5.5 11 9 12.57 9 14.5 7.43 18 5.5 18zm0-5c-.827 0-1.5.673-1.5 1.5S4.673 16 5.5 16 7 15.327 7 14.5 6.327 13 5.5 13zM23.5 18c-1.93 0-3.5-1.57-3.5-3.5s1.57-3.5 3.5-3.5 3.5 1.57 3.5 3.5-1.57 3.5-3.5 3.5zm0-5c-.827 0-1.5.673-1.5 1.5s.673 1.5 1.5 1.5 1.5-.673 1.5-1.5-.673-1.5-1.5-1.5z" fill="#ffffff" class="color000000 svgShape"></path></svg>